<?xml version="1.0" encoding="UTF-8" standalone="no"?>
<!-- Created with Inkscape (http://www.inkscape.org/) -->

<svg
   width="100mm"
   height="100mm"
   viewBox="0 0 100 100"
   version="1.1"
   id="svg460"
   inkscape:version="1.2 (dc2aedaf03, 2022-05-15)"
   sodipodi:docname="Logo_bile_zaklad.svg"
   inkscape:export-filename="Logo_bile_zaklad.png"
   inkscape:export-xdpi="600"
   inkscape:export-ydpi="600"
   xmlns:inkscape="http://www.inkscape.org/namespaces/inkscape"
   xmlns:sodipodi="http://sodipodi.sourceforge.net/DTD/sodipodi-0.dtd"
   xmlns="http://www.w3.org/2000/svg"
   xmlns:svg="http://www.w3.org/2000/svg">
  <sodipodi:namedview
     id="namedview462"
     pagecolor="#ffffff"
     bordercolor="#999999"
     borderopacity="1"
     inkscape:showpageshadow="0"
     inkscape:pageopacity="0"
     inkscape:pagecheckerboard="0"
     inkscape:deskcolor="#d1d1d1"
     inkscape:document-units="mm"
     showgrid="false"
     inkscape:zoom="0.74297138"
     inkscape:cx="259.76775"
     inkscape:cy="-20.189203"
     inkscape:window-width="1920"
     inkscape:window-height="1009"
     inkscape:window-x="-8"
     inkscape:window-y="-8"
     inkscape:window-maximized="1"
     inkscape:current-layer="layer1" />
  <defs
     id="defs457" />
  <g
     inkscape:label="Vrstva 1"
     inkscape:groupmode="layer"
     id="layer1">
    <g
       aria-label="JACHTING"
       transform="matrix(0.9972665,0,0,1.002741,-125.91068,-1.05e-6)"
       id="text6935"
       style="font-size:6.5px;line-height:1.25;font-family:Bahnschrift;-inkscape-font-specification:Bahnschrift;word-spacing:0px;display:inline;fill:#ffffff;stroke-width:0.264583">
      <path
         d="m 156.11284,87.780027 q -0.3575,0 -0.6435,-0.0975 -0.2795,-0.104 -0.4875,-0.2535 -0.2015,-0.1495 -0.3315,-0.3055 -0.13,-0.1625 -0.208,-0.2925 l 0.533,-0.546 q 0.104,0.1495 0.2145,0.2795 0.1105,0.13 0.234,0.234 0.13,0.0975 0.286,0.156 0.1625,0.052 0.3575,0.052 0.3055,0 0.52,-0.13 0.221,-0.1365 0.3445,-0.364 0.1235,-0.234 0.1235,-0.5135 v -2.0475 h -1.0335 v -0.7865 h 2.665 v 0.7865 h -0.7995 v 2.132 q 0,0.338 -0.1235,0.65 -0.1235,0.3055 -0.3575,0.546 -0.2275,0.234 -0.559,0.3705 -0.325,0.13 -0.7345,0.13 z"
         style="font-weight:500;font-family:'Lexend Mega';-inkscape-font-specification:'Lexend Mega Medium'"
         id="path7627" />
      <path
         d="m 158.94684,87.715027 2.067,-4.55 h 0.8645 l 2.054,4.55 h -0.897 l -1.287,-2.834 q -0.0455,-0.117 -0.104,-0.2535 -0.0585,-0.143 -0.117,-0.286 -0.0585,-0.143 -0.1105,-0.286 -0.052,-0.1495 -0.091,-0.2665 l 0.2015,-0.0065 q -0.0455,0.1365 -0.0975,0.286 -0.052,0.143 -0.1105,0.286 -0.0585,0.143 -0.117,0.2795 -0.0585,0.13 -0.1105,0.2665 l -1.287,2.8145 z m 0.923,-1.001 0.3055,-0.7345 h 2.4765 l 0.195,0.7345 z"
         style="font-weight:500;font-family:'Lexend Mega';-inkscape-font-specification:'Lexend Mega Medium'"
         id="path7629" />
      <path
         d="m 167.35133,87.780027 q -0.5395,0 -1.001,-0.1625 -0.4615,-0.169 -0.806,-0.481 -0.338,-0.3185 -0.533,-0.7475 -0.195,-0.4355 -0.195,-0.9555 0,-0.5005 0.2015,-0.923 0.2015,-0.429 0.546,-0.741 0.351,-0.3185 0.8125,-0.4875 0.4615,-0.1755 0.988,-0.1755 0.403,0 0.767,0.104 0.3705,0.104 0.676,0.273 0.3055,0.169 0.507,0.3705 l -0.507,0.663 q -0.2015,-0.182 -0.429,-0.312 -0.221,-0.1365 -0.4875,-0.208 -0.26,-0.078 -0.5655,-0.078 -0.325,0 -0.6175,0.104 -0.2925,0.104 -0.5265,0.3055 -0.2275,0.2015 -0.364,0.481 -0.1365,0.2795 -0.1365,0.6305 0,0.3705 0.1365,0.6565 0.143,0.2795 0.3835,0.481 0.247,0.195 0.559,0.299 0.3185,0.104 0.6695,0.104 0.325,0 0.585,-0.0845 0.2665,-0.091 0.4745,-0.221 0.2145,-0.13 0.3835,-0.273 l 0.4095,0.676 q -0.1755,0.1625 -0.4745,0.325 -0.299,0.1625 -0.676,0.273 -0.377,0.104 -0.78,0.104 z"
         style="font-weight:500;font-family:'Lexend Mega';-inkscape-font-specification:'Lexend Mega Medium'"
         id="path7631" />
      <path
         d="m 174.34534,87.715027 v -4.55 h 0.845 v 4.55 z m -3.497,0 v -4.55 h 0.845 v 4.55 z m 0.351,-1.8525 v -0.793 h 3.5555 v 0.793 z"
         style="font-weight:500;font-family:'Lexend Mega';-inkscape-font-specification:'Lexend Mega Medium'"
         id="path7633" />
      <path
         d="m 178.23884,87.715027 v -3.77 h -1.586 v -0.78 h 4.0625 v 0.78 h -1.6315 v 3.77 z"
         style="font-weight:500;font-family:'Lexend Mega';-inkscape-font-specification:'Lexend Mega Medium'"
         id="path7635" />
      <path
         d="m 182.17784,87.715027 v -0.7735 h 1.0335 v -3.003 h -1.0335 v -0.7735 h 2.9185 v 0.7735 h -1.04 v 3.003 h 1.04 v 0.7735 z"
         style="font-weight:500;font-family:'Lexend Mega';-inkscape-font-specification:'Lexend Mega Medium'"
         id="path7637" />
      <path
         d="m 187.02035,87.715027 v -4.55 h 0.7995 l 3.224,3.5555 -0.104,0.026 q -0.026,-0.2015 -0.052,-0.416 -0.0195,-0.2145 -0.0325,-0.429 -0.013,-0.221 -0.026,-0.4485 -0.007,-0.2275 -0.013,-0.455 -0.006,-0.234 -0.006,-0.468 v -1.365 h 0.8385 v 4.55 h -0.8125 l -3.237,-3.5035 0.13,-0.0455 q 0.0195,0.2015 0.0325,0.39 0.0195,0.1885 0.039,0.3705 0.0195,0.1755 0.026,0.351 0.013,0.169 0.0195,0.338 0.013,0.169 0.013,0.338 v 1.7615 z"
         style="font-weight:500;font-family:'Lexend Mega';-inkscape-font-specification:'Lexend Mega Medium'"
         id="path7639" />
      <path
         d="m 195.84084,87.780027 q -0.5395,0 -1.014,-0.156 -0.468,-0.1625 -0.8255,-0.4615 -0.3575,-0.3055 -0.559,-0.741 -0.2015,-0.4355 -0.2015,-0.988 0,-0.494 0.2015,-0.9165 0.208,-0.429 0.572,-0.741 0.364,-0.3185 0.8515,-0.494 0.494,-0.1755 1.0595,-0.1755 0.4485,0 0.8385,0.1105 0.3965,0.104 0.6955,0.2795 0.3055,0.1755 0.4875,0.377 l -0.533,0.585 q -0.208,-0.1755 -0.442,-0.2925 -0.234,-0.1235 -0.5005,-0.195 -0.26,-0.078 -0.5525,-0.078 -0.377,0 -0.7085,0.117 -0.325,0.117 -0.5655,0.325 -0.2405,0.208 -0.3835,0.4875 -0.1365,0.2795 -0.1365,0.611 0,0.3835 0.143,0.676 0.143,0.2925 0.39,0.4875 0.2535,0.195 0.5785,0.299 0.325,0.0975 0.6695,0.0975 0.3315,0 0.6175,-0.0715 0.286,-0.0715 0.494,-0.2015 0.2145,-0.13 0.3315,-0.3055 0.1235,-0.1755 0.1105,-0.377 v -0.117 l 0.117,0.169 h -1.6965 v -0.7475 h 2.4375 q 0.013,0.091 0.0195,0.1755 0.007,0.078 0.007,0.143 0,0.0585 0,0.091 0,0.494 -0.182,0.871 -0.182,0.377 -0.52,0.637 -0.338,0.2535 -0.7995,0.39 -0.455,0.13 -1.001,0.13 z"
         style="font-weight:500;font-family:'Lexend Mega';-inkscape-font-specification:'Lexend Mega Medium'"
         id="path7641" />
    </g>
    <path
       id="path6937"
       style="fill:#ffffff;fill-opacity:1;stroke:none;stroke-width:0.264583;stroke-linecap:round;stroke-linejoin:round;stop-color:#000000"
       d="m 34.46391,26.042981 c -0.0654,0.0057 0.31968,0.29772 1.13068,0.905371 6.432727,4.819874 17.024557,17.707611 12.977507,28.846818 3.26123,-0.776094 5.73259,-4.085614 6.40839,-7.386113 0.81112,5.402897 -10.97393,14.729095 -17.618047,13.972274 4.229307,4.020743 8.025507,6.966421 13.303067,9.059395 7.59963,-4.435205 12.26695,-10.439706 12.26695,-17.056323 0,-3.413869 -1.24251,-6.664624 -3.48919,-9.621118 -6.14273,-8.083387 -14.7717,-13.230292 -23.700367,-18.067631 -0.74005,-0.400937 -1.1557,-0.6233 -1.25987,-0.65009 -0.008,-0.0022 -0.0147,-0.0029 -0.0191,-0.0026 z m 28.531587,23.104533 c 0.64222,1.690091 0.98237,3.441466 0.98237,5.236889 0,5.491624 -3.16151,10.577381 -8.52919,14.7252 10e-4,-3.21e-4 0.003,-0.0012 0.004,-0.0016 5.52855,-1.303232 10.25983,-4.091592 11.35021,-7.616589 1.09042,-3.525035 -0.77017,-8.966887 -3.80493,-12.343433 -6.6e-4,0 -0.002,-3.94e-4 -0.003,-5.16e-4 z" />
    <path
       style="fill:#ffffff;fill-opacity:1;stroke:none;stroke-width:0.499999;stroke-linecap:round;stroke-linejoin:round;stroke-opacity:1"
       d="m 37.25452,79.840561 -2.53859,-5.264169 c 2.75612,1.223213 9.599037,0.773458 13.890757,-0.313312 4.54221,-1.150187 7.23019,-1.999259 10.75402,-2.658553 3.58852,-0.671398 6.44904,-0.695013 10.71087,-2.07523 2.42403,-0.785036 5.64379,-2.696592 5.64379,-2.696592 -2.11237,5.71834 -7.52845,11.17097 -9.47743,13.007856 -2.23953,-0.237823 -3.47316,-0.869521 -7.75333,-0.761286 -3.87936,0.09803 -7.30891,0.826007 -10.69168,1.010049 -4.92224,0.267811 -8.270777,0.01052 -10.538407,-0.248763 z"
       id="path6939"
       sodipodi:nodetypes="ccsssccssc" />
    <path
       style="color:#000000;fill:#ffffff;stroke-width:0.158405;stroke-linejoin:round;-inkscape-stroke:none"
       d="M 31.621228,73.309516 C 19.076125,65.691071 12.549062,51.136069 15.190864,36.719805 17.832668,22.303541 29.106107,10.997039 43.545627,8.320569 c 14.43952,-2.676471 29.03323,3.844132 36.66978,16.361509 7.63654,12.517377 6.75561,28.437996 -2.21875,40.03761 l -0.62876,-0.425079 C 86.158707,52.93224 87.025317,37.30781 79.541847,25.041346 72.058367,12.774882 57.802847,6.4172391 43.696657,9.0319261 29.590466,11.646611 18.546825,22.702294 15.955618,36.842453 13.364413,50.982611 19.774446,65.250599 32.043923,72.701669 Z"
       id="path6941" />
    <g
       aria-label="TECHN|KA PRAHA"
       transform="matrix(0.9972665,0,0,1.002741,-0.15857,-1.05e-6)"
       id="g6969"
       style="font-size:3px;line-height:1.25;font-family:Bahnschrift;-inkscape-font-specification:Bahnschrift;word-spacing:0px;display:inline;fill:#ffffff;stroke:none;stroke-width:0.264583">
      <path
         d="m 33.793057,91.912056 v -1.74 h -0.732 v -0.36 h 1.875 v 0.36 h -0.753 v 1.74 z"
         style="font-weight:500;font-family:'Lexend Mega';-inkscape-font-specification:'Lexend Mega Medium';fill:#ffffff;stroke:none"
         id="path6943" />
      <path
         d="m 35.608059,91.912056 v -2.1 h 1.641 v 0.354 h -1.257 v 1.392 h 1.269 v 0.354 z m 0.198,-0.9 v -0.348 h 1.29 v 0.348 z"
         style="font-weight:500;font-family:'Lexend Mega';-inkscape-font-specification:'Lexend Mega Medium';fill:#ffffff;stroke:none"
         id="path6945" />
      <path
         d="m 39.094059,91.942056 q -0.249,0 -0.462,-0.075 -0.213,-0.078 -0.372,-0.222 -0.156,-0.147 -0.246,-0.345 -0.09,-0.201 -0.09,-0.441 0,-0.231 0.093,-0.426 0.093,-0.198 0.252,-0.342 0.162,-0.147 0.375,-0.225 0.213,-0.081 0.456,-0.081 0.186,0 0.354,0.048 0.171,0.048 0.312,0.126 0.141,0.078 0.234,0.171 l -0.234,0.306 q -0.093,-0.084 -0.198,-0.144 -0.102,-0.063 -0.225,-0.096 -0.12,-0.036 -0.261,-0.036 -0.15,0 -0.285,0.048 -0.135,0.048 -0.243,0.141 -0.105,0.093 -0.168,0.222 -0.063,0.129 -0.063,0.291 0,0.171 0.063,0.303 0.066,0.129 0.177,0.222 0.114,0.09 0.258,0.138 0.147,0.048 0.309,0.048 0.15,0 0.27,-0.039 0.123,-0.042 0.219,-0.102 0.099,-0.06 0.177,-0.126 l 0.189,0.312 q -0.081,0.075 -0.219,0.15 -0.138,0.075 -0.312,0.126 -0.174,0.048 -0.36,0.048 z"
         style="font-weight:500;font-family:'Lexend Mega';-inkscape-font-specification:'Lexend Mega Medium';fill:#ffffff;stroke:none"
         id="path6947" />
      <path
         d="m 42.322061,91.912056 v -2.1 h 0.39 v 2.1 z m -1.614,0 v -2.1 h 0.39 v 2.1 z m 0.162,-0.855 v -0.366 h 1.641 v 0.366 z"
         style="font-weight:500;font-family:'Lexend Mega';-inkscape-font-specification:'Lexend Mega Medium';fill:#ffffff;stroke:none"
         id="path6949" />
      <path
         d="m 43.603061,91.912056 v -2.1 h 0.369 l 1.488,1.641 -0.048,0.012 q -0.012,-0.093 -0.024,-0.192 -0.009,-0.099 -0.015,-0.198 -0.006,-0.102 -0.012,-0.207 -0.003,-0.105 -0.006,-0.21 -0.003,-0.108 -0.003,-0.216 v -0.63 h 0.387 v 2.1 h -0.375 l -1.494,-1.617 0.06,-0.021 q 0.009,0.093 0.015,0.18 0.009,0.087 0.018,0.171 0.009,0.081 0.012,0.162 0.006,0.078 0.009,0.156 0.006,0.078 0.006,0.156 v 0.813 z"
         style="font-weight:500;font-family:'Lexend Mega';-inkscape-font-specification:'Lexend Mega Medium';fill:#ffffff;stroke:none"
         id="path6951" />
      <path
         d="m 46.63906,91.912058 v -2.100002 h 0.387 v 2.100002 z"
         style="font-weight:500;font-family:'Lexend Mega';-inkscape-font-specification:'Lexend Mega Medium';fill:#ffffff;stroke:none"
         id="path6953"
         sodipodi:nodetypes="ccccc" />
      <path
         d="m 48.205057,91.357056 -0.048,-0.39 1.368,-1.155 h 0.522 z m -0.282,0.555 v -2.1 h 0.39 v 2.1 z m 1.629,0 -0.87,-1.098 0.249,-0.27 1.11,1.368 z"
         style="font-weight:500;font-family:'Lexend Mega';-inkscape-font-specification:'Lexend Mega Medium';fill:#ffffff;stroke:none"
         id="path6955" />
      <path
         d="m 50.509058,91.912056 0.954,-2.1 h 0.399 l 0.948,2.1 h -0.414 l -0.594,-1.308 q -0.021,-0.054 -0.048,-0.117 -0.027,-0.066 -0.054,-0.132 -0.027,-0.066 -0.051,-0.132 -0.024,-0.069 -0.042,-0.123 l 0.093,-0.003 q -0.021,0.063 -0.045,0.132 -0.024,0.066 -0.051,0.132 -0.027,0.066 -0.054,0.129 -0.027,0.06 -0.051,0.123 l -0.594,1.299 z m 0.426,-0.462 0.141,-0.339 h 1.143 l 0.09,0.339 z"
         style="font-weight:500;font-family:'Lexend Mega';-inkscape-font-specification:'Lexend Mega Medium';fill:#ffffff;stroke:none"
         id="path6957" />
      <path
         d="m 54.706056,91.912056 v -2.1 h 1.11 q 0.189,0 0.345,0.087 0.156,0.087 0.249,0.237 0.093,0.15 0.093,0.336 0,0.195 -0.099,0.351 -0.099,0.156 -0.264,0.249 -0.162,0.09 -0.363,0.09 h -0.681 v 0.75 z m 0.39,-1.11 h 0.639 q 0.096,0 0.177,-0.045 0.084,-0.045 0.132,-0.117 0.048,-0.075 0.048,-0.165 0,-0.087 -0.048,-0.153 -0.048,-0.069 -0.132,-0.108 -0.081,-0.042 -0.177,-0.042 h -0.639 z"
         style="font-weight:500;font-family:'Lexend Mega';-inkscape-font-specification:'Lexend Mega Medium';fill:#ffffff;stroke:none"
         id="path6959" />
      <path
         d="m 57.250055,91.912056 v -2.1 h 1.113 q 0.201,0 0.36,0.087 0.159,0.084 0.252,0.234 0.096,0.15 0.096,0.339 0,0.189 -0.099,0.345 -0.099,0.153 -0.267,0.243 -0.165,0.09 -0.369,0.09 h -0.705 v 0.762 z m 1.458,0 -0.648,-0.948 0.411,-0.075 0.708,1.026 z m -1.077,-1.101 h 0.681 q 0.099,0 0.18,-0.042 0.081,-0.045 0.126,-0.12 0.048,-0.075 0.048,-0.168 0,-0.093 -0.051,-0.162 -0.048,-0.072 -0.135,-0.114 -0.087,-0.042 -0.195,-0.042 h -0.654 z"
         style="font-weight:500;font-family:'Lexend Mega';-inkscape-font-specification:'Lexend Mega Medium';fill:#ffffff;stroke:none"
         id="path6961" />
      <path
         d="m 59.680056,91.912056 0.954,-2.1 h 0.399 l 0.948,2.1 h -0.414 l -0.594,-1.308 q -0.021,-0.054 -0.048,-0.117 -0.027,-0.066 -0.054,-0.132 -0.027,-0.066 -0.051,-0.132 -0.024,-0.069 -0.042,-0.123 l 0.093,-0.003 q -0.021,0.063 -0.045,0.132 -0.024,0.066 -0.051,0.132 -0.027,0.066 -0.054,0.129 -0.027,0.06 -0.051,0.123 l -0.594,1.299 z m 0.426,-0.462 0.141,-0.339 h 1.143 l 0.09,0.339 z"
         style="font-weight:500;font-family:'Lexend Mega';-inkscape-font-specification:'Lexend Mega Medium';fill:#ffffff;stroke:none"
         id="path6963" />
      <path
         d="m 64.216056,91.912056 v -2.1 h 0.39 v 2.1 z m -1.614,0 v -2.1 h 0.39 v 2.1 z m 0.162,-0.855 v -0.366 h 1.641 v 0.366 z"
         style="font-weight:500;font-family:'Lexend Mega';-inkscape-font-specification:'Lexend Mega Medium';fill:#ffffff;stroke:none"
         id="path6965" />
      <path
         d="m 65.230059,91.912056 0.954,-2.1 h 0.399 l 0.948,2.1 h -0.414 l -0.594,-1.308 q -0.021,-0.054 -0.048,-0.117 -0.027,-0.066 -0.054,-0.132 -0.027,-0.066 -0.051,-0.132 -0.024,-0.069 -0.042,-0.123 l 0.093,-0.003 q -0.021,0.063 -0.045,0.132 -0.024,0.066 -0.051,0.132 -0.027,0.066 -0.054,0.129 -0.027,0.06 -0.051,0.123 l -0.594,1.299 z m 0.426,-0.462 0.141,-0.339 h 1.143 l 0.09,0.339 z"
         style="font-weight:500;font-family:'Lexend Mega';-inkscape-font-specification:'Lexend Mega Medium';fill:#ffffff;stroke:none"
         id="path6967" />
    </g>
  </g>
</svg>
